# xmcd
#
# Track frame offsets: 
#        182
#        10732
#        23682
#        33795
#        45932
#        55920
#        68107
#        79795
#        92970
#        107370
#        128720
#        146495
#        164095
#        176595
#        191032
#
# Disc length: 2884 seconds
#
# Revision: 4
# Processed by: cddbd v1.5.2PL0 Copyright (c) Steve Scherf et al.
# Submitted via: ExactAudioCopy v0.99pb4
#
DISCID=bb0b420f
DTITLE=Omar and The Howlers - Blues Bag
DYEAR=1991
DGENRE=Blues
TTITLE0=Give Me Back My Wig
TTITLE1=Bessie Mae
TTITLE2=Big Chief Pontiac
TTITLE3=Sleeping In The Ground
TTITLE4=Lover Man
TTITLE5=Come On Pretty Baby
TTITLE6=Gotta Good Friend
TTITLE7=Leave Here Running
TTITLE8=Big Round World
TTITLE9=Omar´s Blues
TTITLE10=Angel Child
TTITLE11=Tears Like Rain
TTITLE12=Too Much
TTITLE13=Wine Headed Woman
TTITLE14=Blues In A Bottle
EXTD=
EXTT0=
EXTT1=
EXTT2=
EXTT3=
EXTT4=
EXTT5=
EXTT6=
EXTT7=
EXTT8=
EXTT9=
EXTT10=
EXTT11=
EXTT12=
EXTT13=
EXTT14=
PLAYORDER=
